# xmcd
#
# Track frame offsets: 
#        150
#        15517
#        29327
#        46562
#        63885
#        76732
#        91250
#        107125
#        121117
#        137137
#        148812
#        165810
#
# Disc length: 2464 seconds
#
# Revision: 1
# Processed by: cddbd v1.4PL0 Copyright (c) Steve Scherf et al.
# Submitted via: ExactAudioCopy v0.90b3
#
DISCID=86099e0c
DTITLE=George Jones - The Rock: Stone Cold Country 2001
DYEAR=2001
DGENRE=Country
TTITLE0=The Rock
TTITLE1=Beer Run (B Double E Double Are You In) (Duet With Garth Brook
TTITLE1=s)
TTITLE2=Wood And Wire
TTITLE3=50,000 Names
TTITLE4=The Man He Was
TTITLE5=I Got Everything
TTITLE6=Half Over You
TTITLE7=I Am
TTITLE8=Honey Hush
TTITLE9=Around Here
TTITLE10=What I Didn't Do
TTITLE11=Tramp On Your Street
EXTD=
EXTT0=
EXTT1=
EXTT2=
EXTT3=
EXTT4=
EXTT5=
EXTT6=
EXTT7=
EXTT8=
EXTT9=
EXTT10=
EXTT11=
PLAYORDER=
